<?xml version="1.0" encoding="utf-8"?>
<!-- Generator: Adobe Illustrator 26.4.1, SVG Export Plug-In . SVG Version: 6.00 Build 0)  -->
<svg version="1.1" id="Layer_1" xmlns="http://www.w3.org/2000/svg" xmlns:xlink="http://www.w3.org/1999/xlink" x="0px" y="0px"
	 viewBox="0 0 960 560" style="enable-background:new 0 0 960 560;" xml:space="preserve">
<style type="text/css">
	.st0{fill:#FFFFFF;}
</style>
<g>
	<g>
		<path class="st0" d="M274.1,171.5c17.5-40.4,40.8-79.7,68.4-115.8c-5.8-2.2-11.6-4.4-17.4-6.6c-16.7,45-32.7,90.4-37.1,137.9
			c-1.4,15.3-2.2,30.9-0.1,46.2c1.8,13.2,5.8,30.9,22,35.5c12.9,3.7,24.7-3.6,32.1-12.6c4.4-5.5,8.1-11.6,11.6-17.6
			c4.5-7.7,8.3-15.7,11.6-23.9c1.7-4.2-1.9-9.6-6.7-10.5c-5.4-1.1-9.9,1.5-11.7,6c-4.6,11.5-10.9,22.7-18.3,33.4
			c-0.8,1.1-1.6,2.2-2.4,3.3c-1.6,2.1,0.7-0.7-0.4,0.5c-0.5,0.5-0.9,1-1.4,1.5c-0.4,0.4-0.8,0.8-1.2,1.1c-0.2,0.2-2.3,1.8-0.6,0.6
			c-0.6,0.4-3.8,1.9-2,1.3c-0.9,0.3-1.9,0.5-2.9,0.7c-2.3,0.5,2.3,0,0.1,0c-0.6,0-1.3-0.1-1.9,0c-1.2,0.1,1.3,0.1,1.5,0.2
			c-0.3-0.2-0.9-0.1-1.2-0.2c-0.4-0.1-1.1-0.5-1.5-0.4c1.6-0.2,2.2,1,1,0.3c-0.2-0.1-0.4-0.2-0.6-0.3c-0.3-0.1-0.5-0.3-0.7-0.4
			c-1.1-0.5,0.4-0.6,0.9,0.7c-0.2-0.4-1.1-0.9-1.5-1.2c-0.2-0.2-0.8-1.1-1.1-1.1c1,0.2,1.4,1.9,0.6,0.6c-0.1-0.2-0.3-0.4-0.4-0.6
			c-0.8-1.1-1.4-2.3-2.1-3.5c-0.9-1.6,0.8,2,0,0c-0.3-0.7-0.5-1.3-0.8-2c-0.5-1.5-1-3-1.4-4.6c-0.4-1.5-0.7-3-1-4.5
			c-0.2-0.8-0.3-1.7-0.4-2.5c-0.3-1.4,0.1,0.6,0.1,0.8c-0.1-0.6-0.2-1.2-0.3-1.8c-1.9-14.6-1.2-29.4,0.1-43.9
			c0.5-5.7,1.1-11.3,1.9-16.9c0.1-0.5,0.1-1,0.2-1.4c0.3-1.7,0.1-0.3-0.1,0.7c0.2-0.8,0.3-1.7,0.4-2.6c1.1-6.6,2.4-13.2,3.8-19.7
			c7.2-32.1,18.7-63.3,30.2-94.4c1.5-4-1.3-8.6-5.5-10.1c-4.6-1.7-9.2-0.1-11.9,3.5c-22,28.9-41.2,59.4-57.1,91.4
			c-4.7,9.4-9.1,18.9-13.3,28.5c-1.8,4.2,2,9.6,6.7,10.5C267.9,178.6,272.2,176,274.1,171.5L274.1,171.5z"/>
	</g>
</g>
<g>
	<g>
		<path class="st0" d="M353,51.9c-14.5,38.5-29.1,77.2-35.1,117.6c-1.8,11.8-2.9,23.6-3.1,35.5c-0.1,4.5,4.4,8.8,9.5,8.6
			c5.2-0.2,9.5-3.8,9.5-8.6c0.6-39.7,12-78.3,25.6-116.2c3.9-10.8,7.9-21.6,12-32.3c1.6-4.2-1.8-9.5-6.7-10.5
			C359.4,44.9,354.7,47.4,353,51.9L353,51.9z"/>
	</g>
</g>
<g>
	<g>
		<path class="st0" d="M353.9,77.5c7.7-4.9,15.9-8.8,24.2-11.3c2.1-0.7,4.3-1.3,6.5-1.8c0.7-0.2,2.4-0.5,2.6-0.5c-0.3,0,3.1,0,1.5,0
			c0.3,0,1.2,0.5,0.6,0.1c-0.2-0.1-0.5-0.4-0.8-0.5c0.4,0.2,0.7,1,0.4,0.3c-0.2-0.3-0.6-1.7-0.8-2c-0.1-0.1,0.7-1,0.1,0.1
			c-0.2,0.4-0.3,1-0.4,1.4c0,0-0.6,1.4-0.3,0.7c0.3-0.6-0.4,0.8-0.5,0.9c-0.9,1.5-1.9,2.9-2.9,4.3c-0.6,0.8-0.1,0.1,0.1,0
			c-0.3,0.3-0.6,0.7-0.9,1c-0.7,0.8-1.5,1.5-2.2,2.2c-2.9,2.7-6.1,5.2-9.3,7.5c-6.8,4.9-13.7,9.6-20,14.9
			c-8.2,6.9-15.5,14.6-22.2,22.7c-3.1,3.7-0.7,9.6,3.4,11.7c4.9,2.6,10,0.7,13.1-3.1c5.8-7,13.2-14.3,20.8-20.6
			c7.4-6.1,15.7-11.2,23.2-17.2c7.4-5.9,15-13.9,16.8-22.9c1.3-6.6-1.5-13-8.1-16.4c-6-3.1-13.1-2.6-19.6-1
			c-12.4,3-24.3,8.1-34.7,14.7c-4.2,2.7-6.2,7.5-3.4,11.7C343.2,78.2,349.6,80.2,353.9,77.5L353.9,77.5z"/>
	</g>
</g>
<g>
	<g>
		<path class="st0" d="M333.9,134.3c23.2-7,47.1-12.1,71.3-15.2c-3.6-4.2-7.2-8.4-10.8-12.6c-21.6,27.4-33.2,61.1-33.3,94.6
			c0,9.8,1,19.5,2.9,29.1c0.9,4.6,7.1,7.1,11.7,6c5.4-1.3,7.6-6,6.7-10.5c-1.7-8.8-2.5-18.9-2.2-28.9c0.4-10.3,1.5-18.2,4-28.2
			c5-19.7,13.5-36.8,26.6-53.4c2.2-2.7,1.4-7-0.7-9.5c-2.6-2.9-6.1-3.6-10-3.1c-24.2,3.2-48.1,8.3-71.3,15.2
			c-4.9,1.5-8.1,5.9-6.7,10.5C323.5,132.5,329,135.7,333.9,134.3L333.9,134.3z"/>
	</g>
</g>
<g>
	<g>
		<path class="st0" d="M446.9,29.3c-18.3,13.4-33.8,30.1-45.3,48.6c-3.6,5.9-8.7,12.7-4.8,19.5c3,5.2,9.5,7.3,15.7,6.7
			c11.2-1.1,21.5-6.5,31-11.7c4.8-2.6,9.6-5.4,14.6-7.7c1.4-0.6,2.8-1.2,4.2-1.8c-0.4,0.2-1.5,0.5,0.3-0.1c0.7-0.3,1.4-0.5,2.2-0.7
			c1.3-0.4,2.6-0.8,3.9-1.1c0.6-0.1,1.2-0.3,1.8-0.4c0.4-0.1,3-0.4,1.1-0.2c-2.7-4.3-5.5-8.6-8.2-12.9
			c-10.1,17.8-20.3,35.5-30.4,53.3c-9.9,17.4-20.2,34.7-29.7,52.4c-5.3,10-10.2,20.2-13.7,30.8c-1.4,4.3,1.7,9.5,6.7,10.5
			c5.1,1,10.3-1.4,11.7-6c5.8-17.7,15.6-33.8,24.9-50.2c9.9-17.4,19.9-34.8,29.8-52.3c5.7-10,11.4-20,17.1-29.9
			c2.9-5.1-0.5-13.8-8.2-12.9c-10.2,1.2-19.2,4.4-28,9c-8,4.2-15.7,9-24.2,12.4c-1,0.4-0.1,0,0.2,0c-0.6,0.2-1.1,0.4-1.7,0.6
			c-1,0.3-2,0.6-3.1,0.9c-1,0.3-2.1,0.5-3.1,0.8c-0.2,0-1.7,0.4-0.4,0.1c1.4-0.3-0.7,0-1,0c0.6,0,1.7,0.6,0.3,0c1,0.5,1,0.4,2,1.3
			c0.8,0.7,3.7,3.3,1.8,4.3c-0.3,0.1,0.3-0.6,0.4-0.7c1.3-2.1,2.5-4.2,3.8-6.3c2.5-4,5.2-7.9,8.1-11.7c1.4-1.8,2.9-3.6,4.3-5.4
			c1.4-1.7,2.6-3,4.4-5c7.5-8.1,15.8-15.5,24.9-22.1c4-2.9,3.4-9.1,0-12.1C456.5,25.8,450.9,26.4,446.9,29.3L446.9,29.3z"/>
	</g>
</g>
<g>
	<g>
		<path class="st0" d="M496.3,29.9c-10.2,24.1-19.5,48.5-28.5,73c-8.8,24-18.1,48.1-25.5,72.6c-4.2,13.9-7.3,28.1-8.6,42.5
			c-0.4,4.5,4.7,8.8,9.5,8.6c5.5-0.2,9.1-3.8,9.5-8.6c2.2-23.6,10.6-47.2,18.8-70.1c8.7-24.3,17.5-48.7,26.8-72.8
			c5.2-13.6,10.6-27.1,16.3-40.6c1.8-4.2-2-9.6-6.7-10.5C502.6,22.8,498.2,25.4,496.3,29.9L496.3,29.9z"/>
	</g>
</g>
<g>
	<g>
		<path class="st0" d="M485.2,53.3c48.7-12.3,98.4-16.2,148.6-20c5-0.4,9.8-3.7,9.5-8.6c-0.2-4.3-4.2-9-9.5-8.6
			c-51.6,3.9-103.7,7.9-153.7,20.6c-5,1.3-8,6-6.7,10.5C474.8,51.7,480.2,54.5,485.2,53.3L485.2,53.3z"/>
	</g>
</g>
<g>
	<g>
		<path class="st0" d="M460.3,126.9c16.8-5.8,33.5-12,49.9-18.9c4.6-1.9,6-8.1,3.4-11.7c-3-4.2-8.2-5.1-13.1-3.1
			c-3.9,1.6-7.8,3.2-11.8,4.8c-2,0.8-3.9,1.6-5.9,2.3c-0.8,0.3-1.7,0.7-2.5,1c-0.6,0.2-1.1,0.4-1.7,0.6c-0.9,0.4-1.1,0.4-0.6,0.2
			c0.6-0.2,0.4-0.1-0.6,0.2c-0.6,0.2-1.1,0.4-1.7,0.6c-0.8,0.3-1.7,0.6-2.5,1c-2,0.7-4,1.5-6,2.2c-4,1.4-8,2.8-12,4.2
			c-4.7,1.6-8.3,5.8-6.7,10.5C450.1,125,455.4,128.6,460.3,126.9L460.3,126.9z"/>
	</g>
</g>
<g>
	<g>
		<path class="st0" d="M544.1,42.9c-13.2,19-24.2,39-33.4,59.8c-9.1,20.7-17.1,42.6-20.3,64.8c-0.8,5.7-1.1,11.4-0.6,17.1
			c0.6,5.9,1.3,12.3,5.5,17.1c9.3,10.6,24.6,5.2,34.1-1.8c16.7-12.2,24-31.7,26.7-50.2c3.6-24.7-2.8-50.2,1.3-74.5
			c0.7-4.4-1.2-9.4-6.7-10.5c-4.6-0.9-10.9,1.2-11.7,6c-3.7,22.1-0.2,44-0.8,66.2c-0.1,2.1-0.2,4.1-0.3,6.1c-0.1,1-0.2,2-0.3,2.9
			c-0.1,0.4-0.1,0.8-0.2,1.3c0,0.2-0.3,2.4-0.2,1.4c0.1-0.9-0.1,0.5-0.1,0.5c-0.1,0.6-0.2,1.1-0.3,1.7c-0.2,1-0.4,2-0.6,2.9
			c-0.5,2.1-1,4.2-1.6,6.2c-0.6,1.9-1.2,3.8-1.9,5.6c-0.4,0.9-0.7,1.8-1.1,2.8c-0.1,0.2-0.8,1.8-0.4,0.9c0.4-0.8-0.7,1.3-0.6,1.3
			c-1.9,3.6-4.1,7-6.7,10.2c-0.6,0.8,0,0,0.1-0.1c-0.4,0.4-0.8,0.8-1.2,1.3c-0.7,0.7-1.4,1.4-2.1,2.1c-1.6,1.5-3.3,2.9-5.1,4.2
			c1.2-0.9-1,0.6-1.4,0.8c-0.9,0.5-1.8,1-2.8,1.4c1.4-0.6-1.1,0.2-1.6,0.3c-1.5,0.4,1.5-0.2,0,0c-0.7,0.1-2-0.4-0.3,0.1
			c0.2,0.1,1.2,0.8,0.4,0.2c-0.9-0.6,0.3,0.3,0.4,0.5c0.6,0.6-0.2-0.3-0.3-0.5c0.1,0.4,0.4,1.4,0-0.2c-0.6-2.1-1-4.1-1.2-6
			c-0.5-5.2-0.3-10.4,0.4-15.5c1.2-9.4,4.4-19.8,7.5-29.3c3.1-9.7,6.7-19.3,10.7-28.7c8.7-20.4,20-40.6,33.1-59.5
			c2.7-3.9,0.9-9.4-3.4-11.7C552.6,37.5,546.8,39,544.1,42.9L544.1,42.9z"/>
	</g>
</g>
<g>
	<g>
		<path class="st0" d="M574.8,47.3c15.3,42.7,30.6,85.4,45.9,128.1c1.6,4.4,6.6,7.2,11.7,6c4.8-1.2,8.2-6.1,6.7-10.5
			c-15.3-42.7-30.6-85.4-45.9-128.1c-1.6-4.4-6.6-7.2-11.7-6C576.6,37.9,573.2,42.9,574.8,47.3L574.8,47.3z"/>
	</g>
</g>
<g>
	<g>
		<path class="st0" d="M690.4,6.8c-34.4,40.3-68.5,80.9-102.3,121.8c-9.5,11.5-19,23-28.4,34.5c-3.1,3.7-0.7,9.5,3.4,11.7
			c4.8,2.5,10,0.7,13.1-3.1c33.5-40.9,67.4-81.7,101.6-122.1c9.6-11.4,19.3-22.8,29-34.1c3.1-3.7,0.6-9.6-3.4-11.7
			C698.5,1.2,693.5,3.1,690.4,6.8L690.4,6.8z"/>
	</g>
</g>
<g>
	<g>
		<path class="st0" d="M270.2,161.8c0.5,0.7,0.4,0.6-0.2-0.3c0.3,0.6,0.4,0.6,0.2,0.1c-0.1-0.4-0.2-0.8-0.3-1.3
			c0.1,0.8,0.1,0.7,0-0.3c-0.1-2.1-0.3-4.2-0.4-6.4c-0.3-4.8-0.6-9.6-0.9-14.3c-0.6-9.6-1-19.1-1.1-28.7
			c-0.2-18.7,0.8-37.6,4.7-55.8c0.9-4.4-1.3-9.4-6.7-10.5c-4.7-1-10.7,1.3-11.7,6c-4.4,20.6-5.7,41.6-5.3,62.6
			c0.2,10.3,0.7,20.6,1.3,30.9c0.3,5.2,0.6,10.3,1,15.4c0.4,5.6,1.5,10.5,5.9,14.8c3.5,3.4,9.9,3.2,13.5,0
			C273.9,170.6,273.7,165.2,270.2,161.8L270.2,161.8z"/>
	</g>
</g>
<g>
	<g>
		<path class="st0" d="M393.7,246c3.3,50.2,1.7,100.7-4.9,150.7c-1.8,13.7-4,27.2-6.6,40.9c-0.8,4.4,1.3,9.4,6.7,10.5
			c4.6,0.9,10.8-1.3,11.7-6c9.5-50.6,14.3-101.9,13.7-153.2c-0.2-14.3-0.7-28.7-1.6-43c-0.3-4.4-4.2-8.8-9.5-8.6
			C398.3,237.6,393.4,241.2,393.7,246L393.7,246z"/>
	</g>
</g>
<g>
	<g>
		<path class="st0" d="M410.8,433.1c5.1-13,10.3-26,15.4-39.1c-6.3-0.8-12.5-1.5-18.8-2.3c1.2,11-0.7,24,6.5,33.7
			c5.1,6.8,14.1,8.9,22.5,5.9c8.6-3.1,14.7-9.3,19.9-16c4.5-5.9,8.1-12.2,11.8-18.5c2.3-3.9,1.2-9.5-3.4-11.7
			c-4.4-2.1-10.6-1.1-13.1,3.1c-2.8,4.7-5.4,9.5-8.6,14c-0.9,1.3-1.8,2.6-2.8,3.9c-0.4,0.5-0.8,1.1-1.3,1.6
			c-0.3,0.4-0.6,0.7-0.9,1.1c0.4-0.5,0.8-0.9,0.1-0.2c-1.1,1.1-2.1,2.3-3.3,3.3c-0.5,0.4-1,0.9-1.5,1.3c-0.3,0.3-0.7,0.5-1,0.8
			c0.4-0.3,1.4-0.9,0.4-0.3c-0.6,0.4-1.2,0.7-1.9,1.1c-0.3,0.1-0.6,0.3-0.8,0.4c-1.1,0.6,0-0.5,0.6-0.2c-0.2-0.1-1.4,0.4-1.7,0.5
			c-0.1,0-1,0.1-1.1,0.2c0.3-0.3,2.2,0,0.8-0.1c-0.1,0-1,0-1,0c0,0,2.2,0.4,1.5,0.2c-1.8-0.5,1.9,0.7,0.6,0.3
			c-1.6-0.6,0.6-0.1,0.6,0.5c0,0-0.5-0.5-0.6-0.5c-0.9-0.9,0.7,0.7,0.7,0.8c0.1-0.1-0.7-1.1-0.9-1.3c-0.1-0.2-0.2-0.4-0.3-0.6
			c-0.6-1,0.7,0.3,0.4,0.8c0.2-0.3-1-2.8-1.1-3.3c-0.3-1.2-0.6-2.4-0.8-3.7c-0.3-1.6,0.2,1.7,0,0.1c-0.1-0.8-0.2-1.5-0.3-2.2
			c-0.5-4.9-0.4-9.9-0.9-14.8c-0.5-4.3-3.3-7.8-8.3-8.4c-4.9-0.6-8.9,2.1-10.5,6.1c-5.1,13-10.3,26-15.4,39.1
			c-1.7,4.2,1.9,9.6,6.7,10.5C404.4,440.2,409,437.6,410.8,433.1L410.8,433.1z"/>
	</g>
</g>
<g>
	<g>
		<path class="st0" d="M406,262.3c0.5,1.5,0.3,2.9-0.5,4c-0.4,0.5-0.2,0.4,0.5-0.3c-1.1,0.3,0.4-0.1,0.8-0.4c1.8-1,3.6-1.9,5.4-2.8
			c3.3-1.7,6.6-3.3,10-4.8c6.9-3.2,14.3-6.2,21-8.6c15-5.4,30.4-9.6,46.2-12.6c5-1,8-6.2,6.7-10.5c-1.4-4.7-6.7-6.9-11.7-6
			c-18.5,3.5-36.4,8.8-53.8,15.4c-8.4,3.2-16.6,6.8-24.6,10.7c-4,2-8.2,3.9-11.9,6.4c-5.4,3.6-7.5,8.2-6.6,14.2
			c0.7,4.6,7.2,7.1,11.7,6C404.8,271.5,406.7,266.9,406,262.3L406,262.3z"/>
	</g>
</g>
<g>
	<g>
		<path class="st0" d="M399.8,328.9c11.7-6.9,24.1-12.8,36.9-17.8c2-0.8,3.8-3.3,4.4-5.1c0.6-2.1,0.4-4.8-1-6.6
			c-1.3-1.8-3.3-3.4-5.7-3.9c-2.7-0.5-4.9-0.1-7.4,0.9c-12.9,5-25.2,10.9-36.9,17.8c-4.2,2.4-6.3,7.7-3.4,11.7
			C389.4,329.5,395.3,331.5,399.8,328.9L399.8,328.9z"/>
	</g>
</g>
<g>
	<g>
		<path class="st0" d="M480.6,431.8c11.8-55.4,25.2-110.6,40.3-165.4c4.3-15.6,8.7-31.2,13.2-46.7c1.3-4.3-1.6-9.5-6.7-10.5
			c-5-1-10.4,1.3-11.7,6c-15.9,54.6-30.3,109.6-43,164.9c-3.6,15.7-7.1,31.5-10.5,47.3c-0.9,4.4,1.4,9.4,6.7,10.5
			C473.6,438.7,479.6,436.5,480.6,431.8L480.6,431.8z"/>
	</g>
</g>
<g>
	<g>
		<path class="st0" d="M518.8,213.5c-0.2,27.1-0.4,54.2-0.3,81.3c0.2,26.2-0.1,52.7,1.9,78.8c1.1,14.2,3.8,28.3,11.2,41
			c2.8,4.8,10.9,5.6,15,1.7c20.7-19.4,22.2-48.8,27.7-73.8c6.4-28.9,14.4-57.5,24-85.6c5.4-15.9,11.4-31.7,17.8-47.4
			c1.7-4.2-1.9-9.6-6.7-10.5c-5.4-1.1-9.9,1.5-11.7,6c-11.2,27.2-20.9,55-29,83c-4.1,14.1-7.8,28.2-11.1,42.5
			c-3.1,13.3-5.4,26.8-8.5,40.1c-1.5,6.5-3.3,12.9-5.9,19c0.1-0.3-1.1,2.4-0.6,1.4c0.2-0.3-0.9,1.8-1.1,2.1
			c-0.7,1.3-1.5,2.6-2.3,3.8c-1,1.5-2,2.9-3.2,4.3c0.8-1-0.2,0.2-0.3,0.3c-0.8,0.9-1.7,1.7-2.6,2.6c5,0.6,10,1.2,15,1.7
			c-5.4-9.3-7.6-20.5-8.5-30.9c-1.1-12.5-1.1-25.2-1.4-37.7c-0.6-26.3-0.7-52.7-0.6-79c0.1-15,0.2-29.9,0.3-44.9
			c0-4.5-4.4-8.8-9.5-8.6C523.2,205.1,518.9,208.7,518.8,213.5L518.8,213.5z"/>
	</g>
</g>
<g>
	<g>
		<path class="st0" d="M707.1,35.8c19.9,40.8,44.2,79.8,72.4,116.5c2.9,3.8,8.4,5.5,13.1,3.1c4.2-2.2,6.4-7.9,3.4-11.7
			C767.7,107,743.5,68,723.6,27.2c-2.1-4.2-9-5.2-13.1-3.1C705.6,26.7,705,31.6,707.1,35.8L707.1,35.8z"/>
	</g>
</g>
<g>
	<g>
		<path class="st0" d="M815.8,16.4c-14.5,52-29.2,103.9-44.2,155.8c-15,51.8-30.5,103.5-46.5,155.1c-9,28.9-18.1,57.7-27.5,86.6
			c-1.4,4.3,1.7,9.5,6.7,10.5c5.1,1,10.3-1.4,11.7-6c16.6-51.2,32.6-102.5,48-154c15.6-51.8,30.6-103.7,45.4-155.6
			c8.3-29.3,16.5-58.5,24.7-87.9c1.2-4.3-1.6-9.5-6.7-10.5C822.6,9.5,817.1,11.8,815.8,16.4L815.8,16.4z"/>
	</g>
</g>
<g>
	<g>
		<path class="st0" d="M250.1,44.9c-14.4,52.4-29.2,104.7-42.9,157.2c-13.5,51.9-25,104.1-33.9,156.8c-2.5,15-4.9,30.1-7,45.1
			c-1.9,14.2-3,28.9,1.8,42.8c1.5,4.4,6.7,7.2,11.7,6c4.9-1.2,8.2-6.1,6.7-10.5c-3.8-11.2-3-23.1-1.5-35.2c1.6-12.5,3.6-24.6,5.6-37
			c4.3-26.1,9.2-52.1,14.7-78.1c11-52,24.9-103.5,39-155c8-29.2,16.1-58.4,24.1-87.6c1.2-4.3-1.6-9.5-6.7-10.5
			C257,37.9,251.4,40.2,250.1,44.9L250.1,44.9z"/>
	</g>
</g>
<g>
	<g>
		<path class="st0" d="M686.1,59.3c-33.9,62.3-58,128.7-72,196.8c-7.1,34.7-11.7,69.8-13.7,105c-0.5,8.7-0.8,17.4-1,26.2
			c-0.2,8.2-0.8,16.9,1.4,25c2.2,8.2,8.9,15.9,18.6,17.4c9.3,1.6,18.5-1.9,25.9-6.9c8.2-5.5,15-12.6,21.7-19.5
			c6.9-7.3,13.4-14.8,19.5-22.6c11.9-15.2,22.1-31.5,30.6-48.4c2.1-4.2,1.3-9.2-3.4-11.7c-4.1-2.1-10.9-1.2-13.1,3.1
			c-14.5,28.7-33.5,55.1-57.2,77.7c-2.6,2.4-5.1,4.9-8.1,7c1.2-0.9-1.3,0.9-1.3,0.8c-0.8,0.5-1.7,1-2.5,1.5
			c-0.8,0.5-1.7,0.8-2.5,1.3c-1.6,0.8,0.7-0.1-1.2,0.5c-0.9,0.2-1.7,0.4-2.6,0.7c-2.3,0.6,1.5,0.2-0.8,0.1c-0.5,0-2.8-0.5-0.7,0
			c-0.5-0.1-2.5-1-0.8-0.1c-0.3-0.1-2.2-1.6-0.9-0.5c0.1,0.1-1.8-1.9-1.1-1c0.8,0.9-0.8-1.3-0.7-1.2c-0.5-0.9-0.5-1-0.1-0.2
			c-0.2-0.5-0.4-1-0.6-1.6c-0.3-0.8-0.4-1.7-0.6-2.5c-0.6-2.6,0,1.5-0.2-1.2c-0.1-1.8-0.2-3.5-0.3-5.3c-0.1-4.1,0-8.1,0.1-12.2
			c0.2-8.4,0.5-16.8,0.9-25.1c3.5-65.6,16.4-130.3,38.4-193.3c12.2-34.9,27-68.3,44.7-101c2.3-4.2,1.2-9.2-3.4-11.7
			C694.9,54,688.3,55.1,686.1,59.3L686.1,59.3z"/>
	</g>
</g>
<g>
	<g>
		<path class="st0" d="M339.3,343.1c15-3.6,29.4-9.2,42.6-16.5c-4.8-2.5-9.6-4.9-14.4-7.4c0.7,27.6-0.8,54.7-10,81
			c-7.6,22-20.5,42.5-40.3,57.9c-2.1,1.6-3.9,2.8-6.9,4.2c-0.1,0.1-1.7,0.6-0.5,0.3c-0.8,0.3-1.6,0.5-2.4,0.6
			c-1.8,0.4,2.2-0.5-0.8,0.1c-0.3,0-0.6,0-0.9,0c1,0.2,0.9,0.2-0.2-0.1c-1.7-0.6-0.8-0.3-0.4-0.1c-2.2-0.7,0.6,0.5-0.4-0.3
			c-0.5-0.3-1.2-1.6-0.3-0.3c-0.3-0.4-0.6-0.8-0.8-1.3c0.9,1.4,0,0-0.2-0.4c-0.2-0.6-0.4-1.3-0.6-1.9c-0.1-0.5-0.2-1-0.4-1.6
			c0.4,1.8-0.1-0.5-0.1-0.9c-1.2-13.3-0.3-27.2,0.6-40.5c1.7-27.6,5.8-54.2,12.6-81.2c3.8-15.2,8.4-30.3,13.8-45.1
			c1.3-3.7,2.8-7.5,4.2-11.2c0.6-1.4,1.1-2.9,1.7-4.3c0.3-0.8,0.7-1.5,1-2.3c-0.6,1.3,0.4-0.7,0.5-1c0.6-1.2,1.3-2.5,2.1-3.6
			c0.4-0.6,0.8-1.2,1.2-1.7c0.2-0.3,2-2.4,0.8-1.2c0.9-1,2-1.9,3-2.8c-1.2,1,0.1,0,0.5-0.3c0.3-0.2,3-1.4,1.2-0.8
			c-3.6-1.3-7.2-2.6-10.8-3.9c1.9,2.7,2.9,4.5,3.8,7c0.5,1.4,0.9,2.8,1.2,4.2c0.2,1,0.3,1.6,0.4,3.4c0.3,4.5,4.2,8.8,9.5,8.6
			c5-0.2,9.8-3.8,9.5-8.6c-0.5-8.2-3.1-16.2-8-23.1c-2-2.9-6.8-5.4-10.8-3.9c-7.4,2.8-12.9,7.1-17.2,13.2c-3.9,5.6-6.3,12-8.7,18.2
			c-5.5,14.2-10.3,28.7-14.4,43.3c-8.3,29.8-13.6,60.2-15.9,90.8c-1.1,14.8-1.8,29.7-1.1,44.5c0.3,7,1.7,13.9,6.7,19.5
			c5.6,6.2,14.8,8.1,23.1,6c7.9-1.9,14.5-6.7,20.4-11.6c5.3-4.4,10.1-9.2,14.5-14.3c9.5-11,16.9-23,22.8-35.9
			c14.2-31.1,16.7-65.5,15.9-98.7c-0.2-6.3-8-10.9-14.4-7.4c-12.2,6.8-24.3,11.4-38.1,14.8c-5,1.2-8,6.1-6.7,10.5
			C329,341.6,334.3,344.3,339.3,343.1L339.3,343.1z"/>
	</g>
</g>
<g>
	<g>
		<path class="st0" d="M333.9,371c-2.6,3-5,6-7.4,9.1c-1,1.4-2.1,2.8-3.2,4.1c-0.4,0.5-0.7,0.9-1.1,1.3c-0.4,0.4-0.7,0.9-1.1,1.3
			c0.6-0.6,0.5-0.6-0.2,0.2c-1.2,1.2-2.3,2.5-3.6,3.6c-0.6,0.6-1.3,1.1-1.9,1.6c-1.9,1.7,1.4-0.7-0.8,0.6c-1.2,0.7-2.5,1.4-3.8,2
			c-2.3,1.1,1.5-0.2-1,0.3c-1.2,0.3-2.3,0.6-3.5,0.8c2.1-0.3-0.7,0-1,0c-0.9,0-1.8,0-2.6-0.1c-2.6-0.1,1.6,0.5-1-0.2
			c-0.9-0.2-1.7-0.4-2.6-0.6c-0.6-0.2-1.1-0.3-1.7-0.5c-2.6-0.8,1.4,0.8-1.1-0.4c-1.9-0.9-3.8-1.8-5.5-3c1.5,1-0.9-0.7-1-0.7
			c-0.7-0.5-1.4-1.1-2-1.7c-0.7-0.6-1.2-1.2-1.9-1.8c-0.2-0.2-1.1-1.3-0.2-0.2c-2.5-3-4.6-6.7-5.7-9.4c-3-7.3-4.1-14.3-4.9-21.2
			c-0.9-8.3-1.5-16.7-2-25c-1.1-18-1.6-36-1.3-54.1c0.3-20.3,1.5-40.6,3.5-60.8c0.4-4.2-4-7.9-8.3-8.4c-4.3-0.5-9.7,1.9-10.5,6.1
			c-7.9,42.6-26,82.7-40.6,123.6c-7.3,20.5-13.6,41.4-17.4,62.7c-4,22.8-5.7,45.9-5.8,69c-0.2,25.9,1.4,51.8,3,77.7
			c0.3,4.5,4.2,8.8,9.5,8.6c4.9-0.2,9.9-3.8,9.5-8.6c-2.8-44.8-5.6-90.6,1-135c6.4-42.9,23.8-83.3,38.9-124.1
			c8.3-22.7,15.9-45.6,20.3-69.2c-6.3-0.8-12.5-1.5-18.8-2.3c-3.9,38.4-4.6,77-2.2,115.4c0.6,9.1,1.2,18.3,2.3,27.3
			c1.1,8.7,2.6,17.4,6.4,25.5c7.1,15.3,22.3,28.2,41.7,28.5c10.4,0.1,20-4.3,27.1-10.9c3.3-3.1,6.2-6.6,8.9-10
			c1.3-1.7,2.6-3.4,4-5.2c0.6-0.8,1.2-1.6,1.9-2.4c0.3-0.3,0.5-0.7,0.8-1c0.2-0.2,1.4-1.7,0.4-0.5c3.2-3.6,4-8.6,0-12.1
			C344.1,368.1,337.1,367.4,333.9,371L333.9,371z"/>
	</g>
</g>
<g>
	<g>
		<path class="st0" d="M203.1,367.1c20.1-5.2,39.5-12.5,57.7-21.6c4.4-2.2,6.2-7.9,3.4-11.7c-2.9-4-8.4-5.4-13.1-3.1
			c-17.5,8.7-33.8,14.8-53.1,19.8c-4.8,1.3-8.3,6.1-6.7,10.5C192.9,365.5,198,368.5,203.1,367.1L203.1,367.1z"/>
	</g>
</g>
<g>
	<g>
		<path class="st0" d="M37.1,554.6c53.4-16.1,108.2-28.1,163.5-37.7c55.4-9.6,111.3-17,167.1-23.8c57.5-7,115-13.6,172.5-20
			c58.4-6.4,116.8-12.5,175.2-18.3c58.4-5.8,116.9-11.3,175.4-16.4c7.3-0.6,14.5-1.3,21.7-1.9c5.1-0.4,9.5-3.6,9.5-8.6
			c0-4.3-4.4-9-9.5-8.6c-58.8,5.1-117.6,10.5-176.3,16.3c-58.4,5.7-116.9,11.7-175.2,18.1c-58.7,6.4-117.3,13.1-175.8,20.1
			c-56.3,6.8-112.5,13.8-168.3,22.9c-55.7,9.1-110.9,20.3-164.9,35.5c-6.6,1.9-13.3,3.8-19.9,5.8C20.4,541.6,25.4,558.1,37.1,554.6
			L37.1,554.6z"/>
	</g>
</g>
<g>
	<g>
		<path class="st0" d="M794.4,384.6c5,0,9.8-3.9,9.5-8.6c-0.2-4.6-4.2-8.6-9.5-8.6c-5,0-9.8,3.9-9.5,8.6
			C785.1,380.6,789.1,384.6,794.4,384.6L794.4,384.6z"/>
	</g>
</g>
</svg>
