<?xml version="1.0" encoding="utf-8"?>
<!-- Generator: Adobe Illustrator 26.4.1, SVG Export Plug-In . SVG Version: 6.00 Build 0)  -->
<svg version="1.1" id="Layer_1" xmlns="http://www.w3.org/2000/svg" xmlns:xlink="http://www.w3.org/1999/xlink" x="0px" y="0px"
	 viewBox="0 0 960 560" style="enable-background:new 0 0 960 560;" xml:space="preserve">
<style type="text/css">
	.st0{fill:#F6C90E;}
</style>
<g>
	<polygon class="st0" points="215.4,251.2 295,242.1 324.9,487.4 245.4,496.6 	"/>
	<path class="st0" d="M294.5,242.6L324.3,487l-78.6,9L216,251.7L294.5,242.6 M295.4,241.5l-80.5,9.3l30.1,246.3l80.5-9.3
		L295.4,241.5L295.4,241.5z"/>
</g>
<g>
	<polygon class="st0" points="236,418.2 484,389.4 492.9,468.1 245,497 	"/>
	<path class="st0" d="M483.5,389.9l8.9,77.8l-247,28.8l-8.9-77.8L483.5,389.9 M484.4,388.8l-248.9,29l9.1,79.8l248.9-29L484.4,388.8
		L484.4,388.8z"/>
</g>
<g>
	<polygon class="st0" points="305.2,140.4 384.8,131.2 414.7,376.6 335.2,385.7 	"/>
	<path class="st0" d="M384.4,131.8l29.8,244.3l-78.6,9l-29.8-244.3L384.4,131.8 M385.2,130.7l-80.5,9.3l30.1,246.3l80.5-9.3
		L385.2,130.7L385.2,130.7z"/>
</g>
<g>
	<polygon class="st0" points="325.9,307.4 573.8,278.5 582.8,357.3 334.8,386.2 	"/>
	<path class="st0" d="M573.4,279.1l8.9,77.8l-247,28.8l-8.9-77.8L573.4,279.1 M574.2,278l-248.9,29l9.1,79.8l248.9-29L574.2,278
		L574.2,278z"/>
</g>
<g>
	<polygon class="st0" points="395.9,26.7 475.5,17.6 505.4,262.9 425.8,272 	"/>
	<path class="st0" d="M475,18.1l29.8,244.3l-78.6,9L396.5,27.1L475,18.1 M475.9,17l-80.5,9.3l30.1,246.3l80.5-9.3L475.9,17L475.9,17
		z"/>
</g>
<g>
	<polygon class="st0" points="416.5,193.7 664.5,164.8 673.4,243.6 425.5,272.5 	"/>
	<path class="st0" d="M664,165.4l8.9,77.8l-247,28.8l-8.9-77.8L664,165.4 M664.9,164.3l-248.9,29l9.1,79.8L674,244L664.9,164.3
		L664.9,164.3z"/>
</g>
</svg>
