<?xml version="1.0" encoding="utf-8"?>
<!-- Generator: Adobe Illustrator 26.4.1, SVG Export Plug-In . SVG Version: 6.00 Build 0)  -->
<svg version="1.1" id="Layer_1" xmlns="http://www.w3.org/2000/svg" xmlns:xlink="http://www.w3.org/1999/xlink" x="0px" y="0px"
	 viewBox="0 0 960 560" style="enable-background:new 0 0 960 560;" xml:space="preserve">
<style type="text/css">
	.st0{fill:#F6C90E;}
</style>
<g>
	<polygon class="st0" points="230.7,370.9 290.3,311.4 476.3,496.3 416.7,555.7 	"/>
	<path class="st0" d="M290.3,312.1l185.3,184.1L416.7,555L231.4,370.9L290.3,312.1 M290.3,310.7L230,370.9l186.7,185.5l60.3-60.1
		L290.3,310.7L290.3,310.7z"/>
</g>
<g>
	<polygon class="st0" points="357.5,496.5 542.9,311.1 602.1,370.9 416.7,556.3 	"/>
	<path class="st0" d="M542.9,311.8l58.5,59.1L416.7,555.6l-58.5-59.1L542.9,311.8 M542.9,310.4L356.8,496.5l59.9,60.5l186.1-186.1
		L542.9,310.4L542.9,310.4z"/>
</g>
<g>
	<polygon class="st0" points="231.9,220.1 291.5,160.7 477.5,345.5 417.9,405 	"/>
	<path class="st0" d="M291.5,161.4l185.3,184.1l-58.9,58.7L232.6,220.1L291.5,161.4 M291.5,160l-60.3,60.1l186.7,185.5l60.3-60.1
		L291.5,160L291.5,160z"/>
</g>
<g>
	<polygon class="st0" points="358.7,345.8 544.1,160.4 603.3,220.1 417.9,405.5 	"/>
	<path class="st0" d="M544.1,161.1l58.5,59.1L417.9,404.8l-58.5-59.1L544.1,161.1 M544.1,159.6L358,345.8l59.9,60.5L604,220.1
		L544.1,159.6L544.1,159.6z"/>
</g>
<g>
	<polygon class="st0" points="231.9,66.5 291.5,7.1 477.5,191.9 417.9,251.3 	"/>
	<path class="st0" d="M291.5,7.8l185.3,184.1l-58.9,58.7L232.6,66.5L291.5,7.8 M291.5,6.3l-60.3,60.1L417.9,252l60.3-60.1L291.5,6.3
		L291.5,6.3z"/>
</g>
<g>
	<polygon class="st0" points="358.7,192.1 544.1,6.7 603.3,66.5 417.9,251.9 	"/>
	<path class="st0" d="M544.1,7.4l58.5,59.1L417.9,251.2l-58.5-59.1L544.1,7.4 M544.1,6L358,192.1l59.9,60.5L604,66.5L544.1,6
		L544.1,6z"/>
</g>
</svg>
